<svg xmlns="http://www.w3.org/2000/svg" viewBox="0 0 100 100" fill="none">
  <defs>
    <linearGradient id="vlbg" x1="0" y1="0" x2="1" y2="1">
      <stop offset="0%" stop-color="#1E1C2E" />
      <stop offset="100%" stop-color="#0F0E1A" />
    </linearGradient>
    <radialGradient id="vlglow" cx="50%" cy="52%" r="40%">
      <stop offset="0%" stop-color="#7C6FF7" stop-opacity="0.25" />
      <stop offset="100%" stop-color="#7C6FF7" stop-opacity="0" />
    </radialGradient>
    <linearGradient id="vlp1" x1="0.3" y1="0" x2="0.7" y2="1">
      <stop offset="0%" stop-color="#E2DCFF" />
      <stop offset="55%" stop-color="#9580FF" />
      <stop offset="100%" stop-color="#5B4FCF" />
    </linearGradient>
    <linearGradient id="vlp2" x1="0" y1="0.3" x2="1" y2="0.7">
      <stop offset="0%" stop-color="#C4B5FD" />
      <stop offset="55%" stop-color="#7C6FF7" />
      <stop offset="100%" stop-color="#4C42B8" />
    </linearGradient>
    <linearGradient id="vlp3" x1="0.7" y1="0" x2="0.3" y2="1">
      <stop offset="0%" stop-color="#A78BFA" />
      <stop offset="55%" stop-color="#6D5FE8" />
      <stop offset="100%" stop-color="#3D35A0" />
    </linearGradient>
  </defs>
  <rect width="100" height="100" rx="22" fill="url(#vlbg)" />
  <rect width="100" height="100" rx="22" fill="url(#vlglow)" />
  <path
    d="M 50 52 C 72 42, 78 18, 58 13 C 38 8, 28 28, 50 52 Z"
    fill="url(#vlp1)"
    opacity="0.95"
  />
  <path
    d="M 50 52 C 72 42, 78 18, 58 13 C 38 8, 28 28, 50 52 Z"
    fill="url(#vlp2)"
    opacity="0.82"
    transform="rotate(120 50 52)"
  />
  <path
    d="M 50 52 C 72 42, 78 18, 58 13 C 38 8, 28 28, 50 52 Z"
    fill="url(#vlp3)"
    opacity="0.70"
    transform="rotate(240 50 52)"
  />
  <circle cx="50" cy="52" r="4" fill="rgba(226,220,255,0.45)" />
</svg>
